<?xml version="1.0" encoding="UTF-8" standalone="no"?>
<!DOCTYPE svg PUBLIC "-//W3C//DTD SVG 1.1//EN" "http://www.w3.org/Graphics/SVG/1.1/DTD/svg11.dtd">
<svg width="100%" height="100%" viewBox="0 0 1423 1423" version="1.1" xmlns="http://www.w3.org/2000/svg" xmlns:xlink="http://www.w3.org/1999/xlink" xml:space="preserve" xmlns:serif="http://www.serif.com/" style="fill-rule:evenodd;clip-rule:evenodd;stroke-linejoin:round;stroke-miterlimit:16;">
    <g transform="matrix(1,0,0,1,-3623,-16264)">
        <g id="Rebar_Shape_39" transform="matrix(0.785937,0,0,1.15149,-334.07,15871.6)">
            <rect x="5035.21" y="341.093" width="1809.59" height="1235.12" style="fill:none;"/>
            <clipPath id="_clip1">
                <rect x="5035.21" y="341.093" width="1809.59" height="1235.12"/>
            </clipPath>
            <g clip-path="url(#_clip1)">
                <g id="Rebar_Shape_391" serif:id="Rebar_Shape_39" transform="matrix(1.27237,0,0,0.86844,2743.17,-10659.9)">
                    <g transform="matrix(5.55237,0,0,-5.55393,1302.93,14642.3)">
                        <rect x="89.126" y="100.499" width="256" height="256" style="fill:none;"/>
                    </g>
                    <g transform="matrix(5.55237,0,0,-5.55393,1775.68,14019.6)">
                        <path d="M171.134,171.213L238.463,171.213" style="fill:none;fill-rule:nonzero;stroke:rgb(255,0,0);stroke-width:7.12px;"/>
                    </g>
                    <g transform="matrix(0,-5.55393,5.55237,0,2775.86,17216.7)">
                        <path d="M761.854,73.328L786.895,73.328" style="fill:none;fill-rule:nonzero;stroke:rgb(255,0,0);stroke-width:7.12px;"/>
                    </g>
                    <g transform="matrix(-5.55237,0,0,5.55393,5299.65,2214.68)">
                        <path d="M381.214,1939.29C381.218,1943.28 382.794,1947.08 385.608,1949.89C388.415,1952.71 392.234,1954.29 396.214,1954.29" style="fill:none;fill-rule:nonzero;stroke:rgb(255,0,0);stroke-width:7.12px;"/>
                    </g>
                    <g transform="matrix(5.12479,-2.13727,2.13667,5.12623,-3432.79,3909.44)">
                        <path d="M377.671,1948.99C381.36,1947.46 385.477,1947.46 389.151,1948.99" style="fill:none;fill-rule:nonzero;stroke:rgb(255,0,0);stroke-width:7.12px;"/>
                    </g>
                    <g transform="matrix(5.55399,0,0,5.55556,-24.833,-1134)">
                        <text x="421.05px" y="2718.12px" style="font-family:'SegoeUI', 'Segoe UI', sans-serif;font-size:60.982px;fill:rgb(255,0,0);">3<tspan x="456.115px " y="2718.12px ">9</tspan></text>
                    </g>
                    <g transform="matrix(-4.20825,3.6231,-3.62208,-4.20943,12818.5,17998.4)">
                        <path d="M809.559,1862.09L943.548,1862.09" style="fill:none;fill-rule:nonzero;stroke:rgb(255,0,0);stroke-width:7.12px;"/>
                    </g>
                    <g transform="matrix(-5.55237,0,0,5.55393,3196.57,12650.2)">
                        <path d="M207.205,171.213L239.535,171.213" style="fill:none;fill-rule:nonzero;stroke:rgb(255,0,0);stroke-width:7.12px;"/>
                    </g>
                    <g transform="matrix(-5.12479,2.13727,-2.13667,-5.12623,8204.76,22760.3)">
                        <path d="M377.671,1948.99C381.36,1947.46 385.477,1947.46 389.151,1948.99" style="fill:none;fill-rule:nonzero;stroke:rgb(255,0,0);stroke-width:7.12px;"/>
                    </g>
                </g>
            </g>
        </g>
    </g>
</svg>
