<?xml version="1.0" encoding="UTF-8" standalone="no"?>
<!DOCTYPE svg PUBLIC "-//W3C//DTD SVG 1.1//EN" "http://www.w3.org/Graphics/SVG/1.1/DTD/svg11.dtd">
<svg width="100%" height="100%" viewBox="0 0 1423 1424" version="1.1" xmlns="http://www.w3.org/2000/svg" xmlns:xlink="http://www.w3.org/1999/xlink" xml:space="preserve" xmlns:serif="http://www.serif.com/" style="fill-rule:evenodd;clip-rule:evenodd;stroke-linejoin:round;stroke-miterlimit:16;">
    <g transform="matrix(1,0,0,1,-42,-9753)">
        <g id="Rebar_Shape_19" transform="matrix(0.785937,0,0,1.15149,-3914.67,9361.22)">
            <rect x="5035.21" y="341.093" width="1809.59" height="1235.12" style="fill:none;"/>
            <clipPath id="_clip1">
                <rect x="5035.21" y="341.093" width="1809.59" height="1235.12"/>
            </clipPath>
            <g clip-path="url(#_clip1)">
                <g id="Rebar_Shape_191" serif:id="Rebar_Shape_19" transform="matrix(1.27237,0,0,0.86844,5029.74,-5450.82)">
                    <g transform="matrix(5.55237,0,0,-5.55393,-486.254,8663.61)">
                        <rect x="89.126" y="100.499" width="256" height="256" style="fill:none;"/>
                    </g>
                    <g transform="matrix(5.55399,0,0,5.55556,0.126307,-1.26319e-12)">
                        <text x="80.839px" y="1434.28px" style="font-family:'SegoeUI', 'Segoe UI', sans-serif;font-size:60.982px;fill:rgb(255,0,0);">1<tspan x="115.904px " y="1434.28px ">9</tspan></text>
                    </g>
                    <g transform="matrix(5.55237,0,0,-5.55393,754.91,12437.7)">
                        <path d="M-76.287,990.568L27.524,990.568L73.915,950.722L73.915,885.05" style="fill:none;fill-rule:nonzero;stroke:rgb(255,0,0);stroke-width:7.12px;"/>
                    </g>
                    <g transform="matrix(5.55237,0,0,-5.55393,754.91,13226.4)">
                        <path d="M73.915,1027.05C73.915,1020.42 68.543,1015.05 61.915,1015.05C55.288,1015.05 49.915,1020.42 49.915,1027.05" style="fill:none;fill-rule:nonzero;stroke:rgb(255,0,0);stroke-width:7.12px;"/>
                    </g>
                    <g transform="matrix(-0.19725,5.55043,5.54887,0.197305,-5357.78,6456.47)">
                        <path d="M73.915,1027.05C73.915,1020.42 68.543,1015.05 61.915,1015.05C55.288,1015.05 49.915,1020.42 49.915,1027.05" style="fill:none;fill-rule:nonzero;stroke:rgb(255,0,0);stroke-width:7.12px;"/>
                    </g>
                </g>
            </g>
        </g>
    </g>
</svg>
