<?xml version="1.0" encoding="UTF-8" standalone="no"?>
<!DOCTYPE svg PUBLIC "-//W3C//DTD SVG 1.1//EN" "http://www.w3.org/Graphics/SVG/1.1/DTD/svg11.dtd">
<svg width="100%" height="100%" viewBox="0 0 1424 1423" version="1.1" xmlns="http://www.w3.org/2000/svg" xmlns:xlink="http://www.w3.org/1999/xlink" xml:space="preserve" xmlns:serif="http://www.serif.com/" style="fill-rule:evenodd;clip-rule:evenodd;stroke-linejoin:round;stroke-miterlimit:16;">
    <g transform="matrix(1,0,0,1,-1801,-18446)">
        <g id="Rebar_Shape_44" transform="matrix(0.785937,0,0,1.15149,-2155.56,18053.6)">
            <rect x="5035.21" y="341.093" width="1809.59" height="1235.12" style="fill:none;"/>
            <clipPath id="_clip1">
                <rect x="5035.21" y="341.093" width="1809.59" height="1235.12"/>
            </clipPath>
            <g clip-path="url(#_clip1)">
                <g id="Rebar_Shape_441" serif:id="Rebar_Shape_44" transform="matrix(1.27237,0,0,0.86844,2675.6,-12199.8)">
                    <g transform="matrix(5.55237,0,0,-5.55393,1360.7,16421.1)">
                        <rect x="89.126" y="100.499" width="256" height="256" style="fill:none;"/>
                    </g>
                    <g transform="matrix(5.55237,0,0,-5.55393,517.75,27119.1)">
                        <path d="M284.827,2185.55L342.256,2185.55" style="fill:none;fill-rule:nonzero;stroke:rgb(255,0,0);stroke-width:7.12px;"/>
                    </g>
                    <g transform="matrix(5.55399,0,0,5.55556,-24.8168,-1134)">
                        <text x="431.449px" y="3037.36px" style="font-family:'SegoeUI', 'Segoe UI', sans-serif;font-size:60.982px;fill:rgb(255,0,0);">4<tspan x="466.514px " y="3037.36px ">4</tspan></text>
                    </g>
                    <g transform="matrix(5.55237,0,0,-5.55393,720.015,28069.2)">
                        <path d="M248.399,2282.99L351.945,2282.99" style="fill:none;fill-rule:nonzero;stroke:rgb(255,0,0);stroke-width:7.12px;"/>
                    </g>
                    <g transform="matrix(-2.68039,4.86391,-4.86254,-2.68114,14734.7,18852.8)">
                        <path d="M353.623,2195.7L489.56,2195.7" style="fill:none;fill-rule:nonzero;stroke:rgb(255,0,0);stroke-width:7.12px;"/>
                    </g>
                    <g transform="matrix(0,5.55393,-5.55237,0,14461.4,13888.9)">
                        <path d="M211.59,2241.48L255.207,2241.48" style="fill:none;fill-rule:nonzero;stroke:rgb(255,0,0);stroke-width:7.12px;"/>
                    </g>
                    <g transform="matrix(3.92613,3.92722,-3.92611,3.92723,8803.45,4259.93)">
                        <path d="M541.969,2270.78C547.82,2276.64 557.328,2276.64 563.182,2270.78" style="fill:none;fill-rule:nonzero;stroke:rgb(255,0,0);stroke-width:7.12px;"/>
                    </g>
                    <g transform="matrix(3.92613,-3.92722,-3.92611,-3.92723,8803.45,26110.3)">
                        <path d="M541.969,2270.78C547.82,2276.64 557.328,2276.64 563.182,2270.78" style="fill:none;fill-rule:nonzero;stroke:rgb(255,0,0);stroke-width:7.12px;"/>
                    </g>
                    <g transform="matrix(-4.77371,2.83638,2.83558,4.77505,-1106.28,2973.32)">
                        <path d="M541.323,2269.78C545.933,2272.45 551.699,2272.45 556.324,2269.78" style="fill:none;fill-rule:nonzero;stroke:rgb(255,0,0);stroke-width:7.12px;"/>
                    </g>
                </g>
            </g>
        </g>
    </g>
</svg>
