<?xml version="1.0" encoding="UTF-8" standalone="no"?>
<!DOCTYPE svg PUBLIC "-//W3C//DTD SVG 1.1//EN" "http://www.w3.org/Graphics/SVG/1.1/DTD/svg11.dtd">
<svg width="100%" height="100%" viewBox="0 0 1423 1423" version="1.1" xmlns="http://www.w3.org/2000/svg" xmlns:xlink="http://www.w3.org/1999/xlink" xml:space="preserve" xmlns:serif="http://www.serif.com/" style="fill-rule:evenodd;clip-rule:evenodd;stroke-linejoin:round;stroke-miterlimit:16;">
    <g transform="matrix(1,0,0,1,-7099,-18446)">
        <g id="Rebar_Shape_47" transform="matrix(0.785937,0,0,1.15149,3141.94,18053.6)">
            <rect x="5035.21" y="341.093" width="1809.59" height="1235.12" style="fill:none;"/>
            <clipPath id="_clip1">
                <rect x="5035.21" y="341.093" width="1809.59" height="1235.12"/>
            </clipPath>
            <g clip-path="url(#_clip1)">
                <g id="Rebar_Shape_471" serif:id="Rebar_Shape_47" transform="matrix(1.27237,0,0,0.86844,-3799.78,-12199.8)">
                    <g transform="matrix(5.55237,0,0,-5.55393,6448.89,16421.1)">
                        <rect x="89.126" y="100.499" width="256" height="256" style="fill:none;"/>
                    </g>
                    <g transform="matrix(5.55399,0,0,5.55556,-23.407,-1134)">
                        <text x="1333.75px" y="3034.75px" style="font-family:'SegoeUI', 'Segoe UI', sans-serif;font-size:60.982px;fill:rgb(255,0,0);">4<tspan x="1368.82px " y="3034.75px ">7</tspan></text>
                    </g>
                    <g transform="matrix(2.23729,-1.2917,2.77619,4.80849,118.563,5285.15)">
                        <path d="M357.539,2195.17L493.973,2195.17L493.973,2194.97L357.539,2194.97L357.539,2195.17Z" style="fill:none;fill-rule:nonzero;stroke:rgb(255,0,0);stroke-width:9.13px;"/>
                    </g>
                    <g transform="matrix(-5.21805e-15,-4.23779,5.55237,-4.90266e-14,-4870.19,16717.2)">
                        <path d="M357.539,2195.17L493.973,2195.17L493.973,2194.97L357.539,2194.97L357.539,2195.17Z" style="fill:none;fill-rule:nonzero;stroke:rgb(255,0,0);stroke-width:8.01px;"/>
                    </g>
                    <g transform="matrix(-5.21805e-15,-4.23779,5.55237,-4.90266e-14,-4176.57,16717.8)">
                        <path d="M357.539,2195.17L493.973,2195.17L493.973,2194.97L357.539,2194.97L357.539,2195.17Z" style="fill:none;fill-rule:nonzero;stroke:rgb(255,0,0);stroke-width:8.01px;"/>
                    </g>
                    <g transform="matrix(5.08802,-5.43465e-15,5.93519e-14,5.55237,5499.03,2437.16)">
                        <path d="M357.539,2195.17L493.973,2195.17L493.973,2194.97L357.539,2194.97L357.539,2195.17Z" style="fill:none;fill-rule:nonzero;stroke:rgb(255,0,0);stroke-width:7.43px;"/>
                    </g>
                    <g transform="matrix(2.0907,-1.20707,2.77619,4.80849,1169.84,5079.21)">
                        <path d="M357.539,2195.17L493.973,2195.17L493.973,2194.97L357.539,2194.97L357.539,2195.17Z" style="fill:none;fill-rule:nonzero;stroke:rgb(255,0,0);stroke-width:9.24px;"/>
                    </g>
                </g>
            </g>
        </g>
    </g>
</svg>
