<?xml version="1.0" encoding="UTF-8" standalone="no"?>
<!DOCTYPE svg PUBLIC "-//W3C//DTD SVG 1.1//EN" "http://www.w3.org/Graphics/SVG/1.1/DTD/svg11.dtd">
<svg width="100%" height="100%" viewBox="0 0 1423 1423" version="1.1" xmlns="http://www.w3.org/2000/svg" xmlns:xlink="http://www.w3.org/1999/xlink" xml:space="preserve" xmlns:serif="http://www.serif.com/" style="fill-rule:evenodd;clip-rule:evenodd;stroke-linejoin:round;stroke-miterlimit:16;">
    <g transform="matrix(1,0,0,1,-7123,-11817)">
        <g id="Rebar_Shape_29" transform="matrix(0.785937,0,0,1.15149,3165.66,11424.6)">
            <rect x="5035.21" y="341.093" width="1809.59" height="1235.12" style="fill:none;"/>
            <clipPath id="_clip1">
                <rect x="5035.21" y="341.093" width="1809.59" height="1235.12"/>
            </clipPath>
            <g clip-path="url(#_clip1)">
                <g id="Rebar_Shape_291" serif:id="Rebar_Shape_29" transform="matrix(1.27237,0,0,0.86844,-3308.95,-6873.67)">
                    <g transform="matrix(5.55237,0,0,-5.55393,6078.49,10288.1)">
                        <rect x="89.126" y="100.499" width="256" height="256" style="fill:none;"/>
                    </g>
                    <g transform="matrix(4.31977,-3.48931,3.48833,4.32098,-720.005,6367.3)">
                        <path d="M772.931,1186.52L876.719,1186.52" style="fill:none;fill-rule:nonzero;stroke:rgb(255,0,0);stroke-width:7.12px;"/>
                    </g>
                    <g transform="matrix(4.56396,3.16303,-3.16214,4.56524,7064.32,262.738)">
                        <path d="M874.518,1184.33L980.989,1184.33" style="fill:none;fill-rule:nonzero;stroke:rgb(255,0,0);stroke-width:7.12px;"/>
                    </g>
                    <g transform="matrix(5.55399,0,0,5.55556,1.99628,1.26319e-12)">
                        <text x="1277.65px" y="1730.24px" style="font-family:'SegoeUI', 'Segoe UI', sans-serif;font-size:60.982px;fill:rgb(255,0,0);">2<tspan x="1312.72px " y="1730.24px ">9</tspan></text>
                    </g>
                    <g transform="matrix(-4.33754,3.46718,-3.46621,-4.33876,15992.6,11331)">
                        <path d="M877.72,1266.59L982.762,1266.59" style="fill:none;fill-rule:nonzero;stroke:rgb(255,0,0);stroke-width:7.12px;"/>
                    </g>
                    <g transform="matrix(-4.5216,-3.22332,3.22241,-4.52288,6672.18,17530.9)">
                        <path d="M782.733,1272.82L879.263,1272.82" style="fill:none;fill-rule:nonzero;stroke:rgb(255,0,0);stroke-width:7.12px;"/>
                    </g>
                    <g transform="matrix(0.828697,5.49172,-5.49018,0.828931,13165.3,1967.35)">
                        <path d="M1049,1321.29C1054.86,1327.15 1064.35,1327.15 1070.21,1321.29" style="fill:none;fill-rule:nonzero;stroke:rgb(255,0,0);stroke-width:7.12px;"/>
                    </g>
                    <g transform="matrix(-0.190075,5.55068,5.54912,0.190129,656.531,2694.64)">
                        <path d="M1049,1321.29C1054.86,1327.15 1064.35,1327.15 1070.21,1321.29" style="fill:none;fill-rule:nonzero;stroke:rgb(255,0,0);stroke-width:7.12px;"/>
                    </g>
                    <g transform="matrix(5.54912,-0.190129,0.190076,5.55068,1152.69,2110.18)">
                        <path d="M1049,1321.29C1054.86,1327.15 1064.35,1327.15 1070.21,1321.29" style="fill:none;fill-rule:nonzero;stroke:rgb(255,0,0);stroke-width:7.12px;"/>
                    </g>
                    <g transform="matrix(5.55208,-0.0566458,-0.0566301,-5.55364,1449.3,15838.7)">
                        <path d="M1049,1321.29C1054.86,1327.15 1064.35,1327.15 1070.21,1321.29" style="fill:none;fill-rule:nonzero;stroke:rgb(255,0,0);stroke-width:7.12px;"/>
                    </g>
                    <g transform="matrix(4.16552,-3.67217,3.67114,4.1667,-2182.28,7516.04)">
                        <path d="M1053.55,1243.86L1072.21,1243.86" style="fill:none;fill-rule:nonzero;stroke:rgb(255,0,0);stroke-width:7.12px;"/>
                    </g>
                    <g transform="matrix(4.13094,3.71105,-3.71001,4.1321,7007.71,-120.525)">
                        <path d="M1053.24,1243.71L1071.03,1243.71" style="fill:none;fill-rule:nonzero;stroke:rgb(255,0,0);stroke-width:7.12px;"/>
                    </g>
                    <g transform="matrix(-0.413766,5.53849,-5.53693,-0.413883,14512.8,3534.24)">
                        <path d="M1048.32,1321.68C1055.14,1328.23 1066.31,1328.23 1073.24,1321.68" style="fill:none;fill-rule:nonzero;stroke:rgb(255,0,0);stroke-width:7.12px;"/>
                    </g>
                </g>
            </g>
        </g>
    </g>
</svg>
