<?xml version="1.0" encoding="UTF-8" standalone="no"?>
<!DOCTYPE svg PUBLIC "-//W3C//DTD SVG 1.1//EN" "http://www.w3.org/Graphics/SVG/1.1/DTD/svg11.dtd">
<svg width="100%" height="100%" viewBox="0 0 1424 1423" version="1.1" xmlns="http://www.w3.org/2000/svg" xmlns:xlink="http://www.w3.org/1999/xlink" xml:space="preserve" xmlns:serif="http://www.serif.com/" style="fill-rule:evenodd;clip-rule:evenodd;stroke-linejoin:round;stroke-miterlimit:16;">
    <g transform="matrix(1,0,0,1,-1801,-16264)">
        <g id="Rebar_Shape_38" transform="matrix(0.785937,0,0,1.15149,-2155.56,15871.6)">
            <rect x="5035.21" y="341.093" width="1809.59" height="1235.12" style="fill:none;"/>
            <clipPath id="_clip1">
                <rect x="5035.21" y="341.093" width="1809.59" height="1235.12"/>
            </clipPath>
            <g clip-path="url(#_clip1)">
                <g id="Rebar_Shape_381" serif:id="Rebar_Shape_38" transform="matrix(1.27237,0,0,0.86844,5043.31,-10659.9)">
                    <g transform="matrix(5.55237,0,0,-5.55393,-494.86,14642.3)">
                        <rect x="89.126" y="100.499" width="256" height="256" style="fill:none;"/>
                    </g>
                    <g transform="matrix(5.55237,0,0,-5.55393,-170.774,14056.9)">
                        <path d="M171.134,171.213L238.463,171.213" style="fill:none;fill-rule:nonzero;stroke:rgb(255,0,0);stroke-width:7.12px;"/>
                    </g>
                    <g transform="matrix(0,-5.55393,5.55237,0,829.407,17253.9)">
                        <path d="M761.854,73.328L786.895,73.328" style="fill:none;fill-rule:nonzero;stroke:rgb(255,0,0);stroke-width:7.12px;"/>
                    </g>
                    <g transform="matrix(-5.55237,0,0,5.55393,3353.19,2251.98)">
                        <path d="M381.214,1939.29C381.218,1943.28 382.794,1947.08 385.608,1949.89C388.415,1952.71 392.234,1954.29 396.214,1954.29" style="fill:none;fill-rule:nonzero;stroke:rgb(255,0,0);stroke-width:7.12px;"/>
                    </g>
                    <g transform="matrix(5.12479,-2.13727,2.13667,5.12623,-5379.24,3946.74)">
                        <path d="M377.671,1948.99C381.36,1947.46 385.477,1947.46 389.151,1948.99" style="fill:none;fill-rule:nonzero;stroke:rgb(255,0,0);stroke-width:7.12px;"/>
                    </g>
                    <g transform="matrix(5.55399,0,0,5.55556,-25.3386,-1134)">
                        <text x="97.448px" y="2718.12px" style="font-family:'SegoeUI', 'Segoe UI', sans-serif;font-size:60.982px;fill:rgb(255,0,0);">3<tspan x="132.513px " y="2718.12px ">8</tspan></text>
                    </g>
                    <g transform="matrix(-4.20825,3.6231,-3.62208,-4.20943,10872,18035.7)">
                        <path d="M809.559,1862.09L943.548,1862.09" style="fill:none;fill-rule:nonzero;stroke:rgb(255,0,0);stroke-width:7.12px;"/>
                    </g>
                </g>
            </g>
        </g>
    </g>
</svg>
