<?xml version="1.0" encoding="UTF-8" standalone="no"?>
<!DOCTYPE svg PUBLIC "-//W3C//DTD SVG 1.1//EN" "http://www.w3.org/Graphics/SVG/1.1/DTD/svg11.dtd">
<svg width="100%" height="100%" viewBox="0 0 1423 1423" version="1.1" xmlns="http://www.w3.org/2000/svg" xmlns:xlink="http://www.w3.org/1999/xlink" xml:space="preserve" xmlns:serif="http://www.serif.com/" style="fill-rule:evenodd;clip-rule:evenodd;">
    <g id="Rebar_Icon" transform="matrix(0.785937,0,0,1.15149,-3957.36,-392.765)">
        <rect x="5035.21" y="341.093" width="1809.59" height="1235.12" style="fill:none;"/>
        <clipPath id="_clip1">
            <rect x="5035.21" y="341.093" width="1809.59" height="1235.12"/>
        </clipPath>
        <g clip-path="url(#_clip1)">
            <g id="Rebar_Ribbon_Icon" transform="matrix(1.27302,0,0,0.868694,5024.26,290.098)">
                <g transform="matrix(5.55237,0,0,-5.55393,-478.212,2038.67)">
                    <rect x="89.126" y="100.499" width="256" height="256" style="fill:rgb(13,186,235);stroke:white;stroke-width:1.1px;"/>
                </g>
                <g transform="matrix(5.55237,0,0,-5.55393,50.5635,-2212.58)">
                    <path d="M223.643,-475.154C223.643,-477.143 221.963,-479.056 218.602,-480.894C215.242,-482.732 210.458,-484.354 204.249,-485.76C198.04,-487.167 190.88,-488.251 182.767,-489.012C174.655,-489.773 166.209,-490.154 157.428,-490.154C148.648,-490.154 140.201,-489.773 132.089,-489.012C123.977,-488.251 116.816,-487.167 110.607,-485.76C104.398,-484.354 99.614,-482.732 96.254,-480.894C92.894,-479.056 91.213,-477.143 91.214,-475.154C91.213,-473.165 92.894,-471.251 96.254,-469.413C99.614,-467.576 104.398,-465.954 110.607,-464.547C116.816,-463.141 123.977,-462.057 132.089,-461.296C140.201,-460.534 148.648,-460.154 157.428,-460.154C166.209,-460.154 174.655,-460.534 182.767,-461.296C190.88,-462.057 198.04,-463.141 204.249,-464.547C210.458,-465.954 215.242,-467.576 218.603,-469.413C221.963,-471.251 223.643,-473.165 223.643,-475.154Z" style="fill:rgb(13,186,235);fill-rule:nonzero;stroke:white;stroke-width:4px;"/>
                </g>
                <g transform="matrix(5.55237,0,0,-5.55393,52.9372,-1965.74)">
                    <path d="M223.643,-475.154C223.643,-477.143 221.963,-479.056 218.602,-480.894C215.242,-482.732 210.458,-484.354 204.249,-485.76C198.04,-487.167 190.88,-488.251 182.767,-489.012C174.655,-489.773 166.209,-490.154 157.428,-490.154C148.648,-490.154 140.201,-489.773 132.089,-489.012C123.977,-488.251 116.816,-487.167 110.607,-485.76C104.398,-484.354 99.614,-482.732 96.254,-480.894C92.894,-479.056 91.213,-477.143 91.214,-475.154C91.213,-473.165 92.894,-471.251 96.254,-469.413C99.614,-467.576 104.398,-465.954 110.607,-464.547C116.816,-463.141 123.977,-462.057 132.089,-461.296C140.201,-460.534 148.648,-460.154 157.428,-460.154C166.209,-460.154 174.655,-460.534 182.767,-461.296C190.88,-462.057 198.04,-463.141 204.249,-464.547C210.458,-465.954 215.242,-467.576 218.603,-469.413C221.963,-471.251 223.643,-473.165 223.643,-475.154Z" style="fill:rgb(13,186,235);fill-rule:nonzero;stroke:white;stroke-width:4px;"/>
                </g>
                <g transform="matrix(5.55237,0,0,-5.55393,52.9372,-1697.3)">
                    <path d="M223.643,-475.154C223.643,-477.143 221.963,-479.056 218.602,-480.894C215.242,-482.732 210.458,-484.354 204.249,-485.76C198.04,-487.167 190.88,-488.251 182.767,-489.012C174.655,-489.773 166.209,-490.154 157.428,-490.154C148.648,-490.154 140.201,-489.773 132.089,-489.012C123.977,-488.251 116.816,-487.167 110.607,-485.76C104.398,-484.354 99.614,-482.732 96.254,-480.894C92.894,-479.056 91.213,-477.143 91.214,-475.154C91.213,-473.165 92.894,-471.251 96.254,-469.413C99.614,-467.576 104.398,-465.954 110.607,-464.547C116.816,-463.141 123.977,-462.057 132.089,-461.296C140.201,-460.534 148.648,-460.154 157.428,-460.154C166.209,-460.154 174.655,-460.534 182.767,-461.296C190.88,-462.057 198.04,-463.141 204.249,-464.547C210.458,-465.954 215.242,-467.576 218.603,-469.413C221.963,-471.251 223.643,-473.165 223.643,-475.154Z" style="fill:rgb(13,186,235);fill-rule:nonzero;stroke:white;stroke-width:4px;"/>
                </g>
                <g transform="matrix(0.0134353,5.55392,-5.55235,0.0134391,-1791.29,214.332)">
                    <path d="M3.094,-422.931L179.761,-422.931" style="fill:none;fill-rule:nonzero;stroke:white;stroke-width:4px;stroke-linejoin:round;stroke-miterlimit:16;"/>
                </g>
                <g transform="matrix(0.0116461,5.55392,-5.55236,0.0116493,-1581.74,277.877)">
                    <path d="M-10.478,-436.503L193.332,-436.503" style="fill:none;fill-rule:nonzero;stroke:white;stroke-width:4px;stroke-linejoin:round;stroke-miterlimit:16;"/>
                </g>
                <g transform="matrix(0.0111222,5.55392,-5.55236,0.0111253,-1425.23,253.668)">
                    <path d="M-15.278,-441.303L198.132,-441.303" style="fill:none;fill-rule:nonzero;stroke:white;stroke-width:4px;stroke-linejoin:round;stroke-miterlimit:16;"/>
                </g>
                <g transform="matrix(0.0134353,5.55392,-5.55235,0.0134391,-1054.81,254.443)">
                    <path d="M3.094,-422.931L179.761,-422.931" style="fill:none;fill-rule:nonzero;stroke:white;stroke-width:4px;stroke-linejoin:round;stroke-miterlimit:16;"/>
                </g>
                <g transform="matrix(0.0111222,5.55392,-5.55236,0.0111253,-1276.37,213.697)">
                    <path d="M-15.278,-441.303L198.132,-441.303" style="fill:none;fill-rule:nonzero;stroke:white;stroke-width:4px;stroke-linejoin:round;stroke-miterlimit:16;"/>
                </g>
                <g transform="matrix(0.0116461,5.55392,-5.55236,0.0116493,-1728.41,211.458)">
                    <path d="M-10.478,-436.503L193.332,-436.503" style="fill:none;fill-rule:nonzero;stroke:white;stroke-width:4px;stroke-linejoin:round;stroke-miterlimit:16;"/>
                </g>
                <g transform="matrix(5.55115,0,0,5.55393,0.00682598,0.122553)">
                    <text x="1.549px" y="179.133px" style="font-family:'SegoeUI', 'Segoe UI', sans-serif;font-size:139.959px;fill:white;">R</text>
                </g>
            </g>
        </g>
    </g>
</svg>
