<?xml version="1.0" encoding="UTF-8" standalone="no"?>
<!DOCTYPE svg PUBLIC "-//W3C//DTD SVG 1.1//EN" "http://www.w3.org/Graphics/SVG/1.1/DTD/svg11.dtd">
<svg width="100%" height="100%" viewBox="0 0 1424 1424" version="1.1" xmlns="http://www.w3.org/2000/svg" xmlns:xlink="http://www.w3.org/1999/xlink" xml:space="preserve" xmlns:serif="http://www.serif.com/" style="fill-rule:evenodd;clip-rule:evenodd;stroke-linejoin:round;stroke-miterlimit:16;">
    <g transform="matrix(1,0,0,1,-3652,-14040)">
        <g id="Rebar_Shape_33" transform="matrix(0.785937,0,0,1.15149,-304.423,13648.1)">
            <rect x="5035.21" y="341.093" width="1809.59" height="1235.12" style="fill:none;"/>
            <clipPath id="_clip1">
                <rect x="5035.21" y="341.093" width="1809.59" height="1235.12"/>
            </clipPath>
            <g clip-path="url(#_clip1)">
                <g id="Rebar_Shape_331" serif:id="Rebar_Shape_33" transform="matrix(1.27237,0,0,0.86844,5047.2,-9042.69)">
                    <g transform="matrix(5.55237,0,0,-5.55393,-494.86,12784.4)">
                        <rect x="89.126" y="100.499" width="256" height="256" style="fill:none;"/>
                    </g>
                    <g transform="matrix(-5.55237,0,0,-5.55393,596.748,15472.4)">
                        <path d="M-104.644,679.962L84.085,679.962" style="fill:none;fill-rule:nonzero;stroke:rgb(255,0,0);stroke-width:7.12px;"/>
                    </g>
                    <g transform="matrix(-4.11174,-3.73232,-3.73127,4.1129,3617.54,8972.29)">
                        <path d="M6.23,625.56L149.665,625.56" style="fill:none;fill-rule:nonzero;stroke:rgb(255,0,0);stroke-width:7.12px;"/>
                    </g>
                    <g transform="matrix(0.185064,-5.55085,5.54928,0.185116,-2644.33,14256.1)">
                        <path d="M483.646,672.626C483.646,680.267 488.184,687.155 495.144,690.081C502.107,693.006 510.113,691.39 515.441,685.985" style="fill:none;fill-rule:nonzero;stroke:rgb(255,0,0);stroke-width:7.12px;"/>
                    </g>
                    <g transform="matrix(5.55399,0,0,5.55556,-25.3386,-1134)">
                        <text x="97.448px" y="2383.7px" style="font-family:'SegoeUI', 'Segoe UI', sans-serif;font-size:60.982px;fill:rgb(255,0,0);">3<tspan x="132.513px " y="2383.7px ">3</tspan></text>
                    </g>
                </g>
            </g>
        </g>
    </g>
</svg>
