<?xml version="1.0" encoding="UTF-8" standalone="no"?>
<!DOCTYPE svg PUBLIC "-//W3C//DTD SVG 1.1//EN" "http://www.w3.org/Graphics/SVG/1.1/DTD/svg11.dtd">
<svg width="100%" height="100%" viewBox="0 0 1424 1424" version="1.1" xmlns="http://www.w3.org/2000/svg" xmlns:xlink="http://www.w3.org/1999/xlink" xml:space="preserve" xmlns:serif="http://www.serif.com/" style="fill-rule:evenodd;clip-rule:evenodd;stroke-linejoin:round;stroke-miterlimit:16;">
    <g transform="matrix(1,0,0,1,-8898,-9753)">
        <g id="Rebar_Shape_24" transform="matrix(0.785937,0,0,1.15149,4941.61,9361.22)">
            <rect x="5035.21" y="341.093" width="1809.59" height="1235.12" style="fill:none;"/>
            <g id="Rebar_Shape_241" serif:id="Rebar_Shape_24" transform="matrix(1.27237,0,0,0.86844,-5451.89,-5463.25)">
                <g transform="matrix(5.55237,0,0,-5.55393,7747.34,8663.61)">
                    <rect x="89.126" y="100.499" width="256" height="256" style="fill:none;"/>
                </g>
                <g transform="matrix(5.55399,0,0,5.55556,2.46315,2.52637e-12)">
                    <text x="1576.46px" y="1437.83px" style="font-family:'SegoeUI', 'Segoe UI', sans-serif;font-size:60.982px;fill:rgb(255,0,0);">2<tspan x="1611.52px " y="1437.83px ">4</tspan></text>
                </g>
                <g transform="matrix(5.55237,0,0,-5.55393,2176.99,11148.5)">
                    <path d="M1175.3,632.984L1265.43,632.984" style="fill:none;fill-rule:nonzero;stroke:rgb(255,0,0);stroke-width:7.12px;"/>
                </g>
                <g transform="matrix(0,-5.55393,5.55237,0,6080.66,14209.6)">
                    <path d="M1196.14,574.363L1313.39,574.363" style="fill:none;fill-rule:nonzero;stroke:rgb(255,0,0);stroke-width:7.12px;"/>
                </g>
                <g transform="matrix(-3.92612,3.92722,-3.92612,-3.92722,16697.2,5219.95)">
                    <path d="M1244.63,647.171C1249.32,642.485 1256.92,642.485 1261.6,647.171" style="fill:none;fill-rule:nonzero;stroke:rgb(255,0,0);stroke-width:7.12px;"/>
                </g>
                <g transform="matrix(5.55237,0,0,-5.55393,1885.6,10485.6)">
                    <path d="M1215.78,648.492C1215.78,651.675 1217.05,654.727 1219.3,656.978C1221.55,659.228 1224.6,660.492 1227.78,660.492" style="fill:none;fill-rule:nonzero;stroke:rgb(255,0,0);stroke-width:7.12px;"/>
                </g>
                <g transform="matrix(-3.9261,-3.92724,3.92614,-3.9272,11790.5,14132.4)">
                    <path d="M1239.63,597.578C1244.32,602.265 1251.92,602.265 1256.6,597.578" style="fill:none;fill-rule:nonzero;stroke:rgb(255,0,0);stroke-width:7.12px;"/>
                </g>
                <g transform="matrix(5.55237,0,0,-5.55393,2176.99,10332.8)">
                    <path d="M1175.3,632.984L1271.54,632.984" style="fill:none;fill-rule:nonzero;stroke:rgb(255,0,0);stroke-width:7.12px;"/>
                </g>
                <g transform="matrix(0,-5.55393,5.55237,0,5462.56,14194.1)">
                    <path d="M1193.35,571.562L1316.19,571.562" style="fill:none;fill-rule:nonzero;stroke:rgb(255,0,0);stroke-width:7.12px;"/>
                </g>
                <g transform="matrix(3.92612,3.92722,3.92612,-3.92722,1208.64,5219.95)">
                    <path d="M1244.63,647.171C1249.32,642.485 1256.92,642.485 1261.6,647.171" style="fill:none;fill-rule:nonzero;stroke:rgb(255,0,0);stroke-width:7.12px;"/>
                </g>
                <g transform="matrix(-3.9261,-3.92724,3.92614,-3.9272,11823.8,14099.1)">
                    <path d="M1239.63,597.578C1244.32,602.265 1251.92,602.265 1256.6,597.578" style="fill:none;fill-rule:nonzero;stroke:rgb(255,0,0);stroke-width:7.12px;"/>
                </g>
                <g transform="matrix(5.55237,0,0,-5.55393,2154.01,10366.1)">
                    <path d="M1232.37,632.984L1269.56,632.984" style="fill:none;fill-rule:nonzero;stroke:rgb(255,0,0);stroke-width:7.12px;"/>
                </g>
                <g transform="matrix(-2.42702e-07,5.55393,5.55237,2.4277e-07,5788.49,39.3874)">
                    <path d="M1232.37,632.984L1269.56,632.984" style="fill:none;fill-rule:nonzero;stroke:rgb(255,0,0);stroke-width:7.12px;"/>
                </g>
            </g>
        </g>
    </g>
</svg>
