<?xml version="1.0" encoding="UTF-8" standalone="no"?>
<!DOCTYPE svg PUBLIC "-//W3C//DTD SVG 1.1//EN" "http://www.w3.org/Graphics/SVG/1.1/DTD/svg11.dtd">
<svg width="100%" height="100%" viewBox="0 0 1423 1424" version="1.1" xmlns="http://www.w3.org/2000/svg" xmlns:xlink="http://www.w3.org/1999/xlink" xml:space="preserve" xmlns:serif="http://www.serif.com/" style="fill-rule:evenodd;clip-rule:evenodd;stroke-linejoin:round;stroke-miterlimit:16;">
    <g transform="matrix(1,0,0,1,-3647,-9753)">
        <g id="Rebar_Shape_21" transform="matrix(0.785937,0,0,1.15149,-310.353,9361.22)">
            <rect x="5035.21" y="341.093" width="1809.59" height="1235.12" style="fill:none;"/>
            <clipPath id="_clip1">
                <rect x="5035.21" y="341.093" width="1809.59" height="1235.12"/>
            </clipPath>
            <g clip-path="url(#_clip1)">
                <g id="Rebar_Shape_211" serif:id="Rebar_Shape_21" transform="matrix(1.27237,0,0,0.86844,979.367,-5463.25)">
                    <g transform="matrix(5.55237,0,0,-5.55393,2692.79,8663.61)">
                        <rect x="89.126" y="100.499" width="256" height="256" style="fill:none;"/>
                    </g>
                    <g transform="matrix(2.11329,-5.13592,5.13447,2.11389,-2302.08,8071.26)">
                        <path d="M589.88,1005.12C591.963,1005.98 594.303,1005.98 596.385,1005.12" style="fill:none;fill-rule:nonzero;stroke:rgb(255,0,0);stroke-width:7.12px;"/>
                    </g>
                    <g transform="matrix(5.55399,0,0,5.55556,1.04408,0)">
                        <text x="668.227px" y="1434.28px" style="font-family:'SegoeUI', 'Segoe UI', sans-serif;font-size:60.982px;fill:rgb(255,0,0);">2<tspan x="703.292px " y="1434.28px ">1</tspan></text>
                    </g>
                    <g transform="matrix(-3.94019,3.91309,-3.91199,-3.9413,8590.9,9890.63)">
                        <path d="M227.712,917.284L339.731,917.284" style="fill:none;fill-rule:nonzero;stroke:rgb(255,0,0);stroke-width:7.12px;"/>
                    </g>
                    <g transform="matrix(2.19731,5.10051,-5.09908,2.19793,7518.27,1913.24)">
                        <path d="M589.88,1005.12C591.963,1005.98 594.303,1005.98 596.385,1005.12" style="fill:none;fill-rule:nonzero;stroke:rgb(255,0,0);stroke-width:7.12px;"/>
                    </g>
                    <g transform="matrix(4.18103,-3.65449,-3.65346,-4.18221,7688.51,12080.4)">
                        <path d="M73.915,1027.05C73.915,1020.42 68.543,1015.05 61.915,1015.05C55.288,1015.05 49.915,1020.42 49.915,1027.05" style="fill:none;fill-rule:nonzero;stroke:rgb(255,0,0);stroke-width:7.12px;"/>
                    </g>
                    <g transform="matrix(4.16632,3.67126,3.67023,-4.1675,-413.417,11613.3)">
                        <path d="M73.915,1027.05C73.915,1020.42 68.543,1015.05 61.915,1015.05C55.288,1015.05 49.915,1020.42 49.915,1027.05" style="fill:none;fill-rule:nonzero;stroke:rgb(255,0,0);stroke-width:7.12px;"/>
                    </g>
                    <g transform="matrix(3.94019,3.91309,3.91199,-3.9413,-782.103,9888.53)">
                        <path d="M227.712,917.284L339.731,917.284" style="fill:none;fill-rule:nonzero;stroke:rgb(255,0,0);stroke-width:7.12px;"/>
                    </g>
                    <g transform="matrix(5.55237,0,0,-5.55393,677.925,12023.1)">
                        <path d="M542.348,880.81C542.348,888.836 546.484,896.534 553.845,902.21C561.206,907.885 571.191,911.074 581.601,911.074" style="fill:none;fill-rule:nonzero;stroke:rgb(255,0,0);stroke-width:7.12px;"/>
                    </g>
                    <g transform="matrix(-4.33118,-3.47512,3.47414,-4.3324,3501.52,13017.7)">
                        <path d="M576.223,896.11C586.797,909.293 608.693,909.293 625.127,896.11" style="fill:none;fill-rule:nonzero;stroke:rgb(255,0,0);stroke-width:7.12px;"/>
                    </g>
                </g>
            </g>
        </g>
    </g>
</svg>
