<?xml version="1.0" encoding="UTF-8" standalone="no"?>
<!DOCTYPE svg PUBLIC "-//W3C//DTD SVG 1.1//EN" "http://www.w3.org/Graphics/SVG/1.1/DTD/svg11.dtd">
<svg width="100%" height="100%" viewBox="0 0 1423 1423" version="1.1" xmlns="http://www.w3.org/2000/svg" xmlns:xlink="http://www.w3.org/1999/xlink" xml:space="preserve" xmlns:serif="http://www.serif.com/" style="fill-rule:evenodd;clip-rule:evenodd;">
    <g transform="matrix(1,0,0,1,-7080,-3587)">
        <g id="Rebar_Shape_05" transform="matrix(0.785937,0,0,1.15149,3122.97,3194.72)">
            <rect x="5035.21" y="341.093" width="1809.59" height="1235.12" style="fill:none;"/>
            <clipPath id="_clip1">
                <rect x="5035.21" y="341.093" width="1809.59" height="1235.12"/>
            </clipPath>
            <g clip-path="url(#_clip1)">
                <g id="Rebar_Shape_051" serif:id="Rebar_Shape_05" transform="matrix(1.27237,0,0,0.86844,-3290.23,-1228.24)">
                    <g transform="matrix(5.55237,0,0,-5.55393,6067.39,3787.04)">
                        <rect x="89.126" y="100.499" width="256" height="256" style="fill:white;fill-opacity:0;stroke:black;stroke-opacity:0;stroke-width:1.1px;"/>
                    </g>
                    <g transform="matrix(5.55237,0,0,-5.55393,6313.39,3539.65)">
                        <path d="M96,171.213L247.016,171.213" style="fill:none;fill-rule:nonzero;stroke:rgb(255,0,0);stroke-width:7.12px;stroke-linejoin:round;stroke-miterlimit:16;"/>
                    </g>
                    <g transform="matrix(-2.17134e-15,-5.55392,-5.55238,-0.00024919,7187.97,3746.91)">
                        <path d="M208.416,61.401C208.416,68.883 211.125,76.057 215.946,81.348C220.768,86.638 227.307,89.61 234.126,89.61" style="fill:none;fill-rule:nonzero;stroke:rgb(255,0,0);stroke-width:7.12px;stroke-linejoin:round;stroke-miterlimit:16;"/>
                    </g>
                    <g transform="matrix(-5.55238,-8.88178e-16,0.000277529,5.55392,8977.84,2091.69)">
                        <path d="M208.416,61.401C208.416,68.883 211.125,76.057 215.946,81.348C220.768,86.638 227.307,89.61 234.126,89.61" style="fill:none;fill-rule:nonzero;stroke:rgb(255,0,0);stroke-width:7.12px;stroke-linejoin:round;stroke-miterlimit:16;"/>
                    </g>
                    <g transform="matrix(0,-5.55393,5.55237,0,6117.68,6701.97)">
                        <path d="M766.196,103.153L782.554,103.153" style="fill:none;fill-rule:nonzero;stroke:rgb(255,0,0);stroke-width:7.12px;stroke-linejoin:round;stroke-miterlimit:16;"/>
                    </g>
                    <g transform="matrix(0,-5.55393,5.55237,0,7247.91,6688.1)">
                        <path d="M766.196,103.153L782.554,103.153" style="fill:none;fill-rule:nonzero;stroke:rgb(255,0,0);stroke-width:7.12px;stroke-linejoin:round;stroke-miterlimit:16;"/>
                    </g>
                    <g transform="matrix(5.55399,0,0,5.55556,1.99067,-6.31594e-13)">
                        <text x="1274.07px" y="560.572px" style="font-family:'SegoeUI', 'Segoe UI', sans-serif;font-size:60.982px;fill:rgb(255,0,0);">0<tspan x="1309.13px " y="560.572px ">5</tspan></text>
                    </g>
                </g>
            </g>
        </g>
    </g>
</svg>
