<?xml version="1.0" encoding="UTF-8" standalone="no"?>
<!DOCTYPE svg PUBLIC "-//W3C//DTD SVG 1.1//EN" "http://www.w3.org/Graphics/SVG/1.1/DTD/svg11.dtd">
<svg width="100%" height="100%" viewBox="0 0 1423 1424" version="1.1" xmlns="http://www.w3.org/2000/svg" xmlns:xlink="http://www.w3.org/1999/xlink" xml:space="preserve" xmlns:serif="http://www.serif.com/" style="fill-rule:evenodd;clip-rule:evenodd;stroke-linejoin:round;stroke-miterlimit:16;">
    <g transform="matrix(1,0,0,1,-5383,-14040)">
        <g id="Rebar_Shape_34" transform="matrix(0.785937,0,0,1.15149,1425.99,13648.1)">
            <rect x="5035.21" y="341.093" width="1809.59" height="1235.12" style="fill:none;"/>
            <clipPath id="_clip1">
                <rect x="5035.21" y="341.093" width="1809.59" height="1235.12"/>
            </clipPath>
            <g clip-path="url(#_clip1)">
                <g id="Rebar_Shape_341" serif:id="Rebar_Shape_34" transform="matrix(1.27237,0,0,0.86844,2988.1,-9036.99)">
                    <g transform="matrix(5.55237,0,0,-5.55393,1108.11,12784.4)">
                        <rect x="89.126" y="100.499" width="256" height="256" style="fill:none;"/>
                    </g>
                    <g transform="matrix(5.55237,0,0,-5.55393,1544.9,12715.7)">
                        <path d="M60.546,171.213L209.836,171.213" style="fill:none;fill-rule:nonzero;stroke:rgb(255,0,0);stroke-width:7.12px;"/>
                    </g>
                    <g transform="matrix(0,-5.55393,5.55237,0,1541.07,15620.7)">
                        <path d="M709.278,46.235L839.472,46.235" style="fill:none;fill-rule:nonzero;stroke:rgb(255,0,0);stroke-width:7.12px;"/>
                    </g>
                    <g transform="matrix(0,-5.55393,5.55237,0,2315.39,15842)">
                        <path d="M749.112,86.07L799.637,86.07" style="fill:none;fill-rule:nonzero;stroke:rgb(255,0,0);stroke-width:7.12px;"/>
                    </g>
                    <g transform="matrix(-5.55237,0,0,5.55393,4909.92,910.788)">
                        <path d="M381.214,1939.29C381.218,1943.28 382.794,1947.08 385.608,1949.89C388.415,1952.71 392.234,1954.29 396.214,1954.29" style="fill:none;fill-rule:nonzero;stroke:rgb(255,0,0);stroke-width:7.12px;"/>
                    </g>
                    <g transform="matrix(5.55237,0,0,5.55393,-318.855,910.788)">
                        <path d="M381.214,1939.29C381.218,1943.28 382.794,1947.08 385.608,1949.89C388.415,1952.71 392.234,1954.29 396.214,1954.29" style="fill:none;fill-rule:nonzero;stroke:rgb(255,0,0);stroke-width:7.12px;"/>
                    </g>
                    <g transform="matrix(5.55399,0,0,5.55556,-24.8878,-1134)">
                        <text x="385.983px" y="2383.7px" style="font-family:'SegoeUI', 'Segoe UI', sans-serif;font-size:60.982px;fill:rgb(255,0,0);">3<tspan x="421.048px " y="2383.7px ">4</tspan></text>
                    </g>
                </g>
            </g>
        </g>
    </g>
</svg>
