<?xml version="1.0" encoding="UTF-8" standalone="no"?>
<!DOCTYPE svg PUBLIC "-//W3C//DTD SVG 1.1//EN" "http://www.w3.org/Graphics/SVG/1.1/DTD/svg11.dtd">
<svg width="100%" height="100%" viewBox="0 0 1423 1424" version="1.1" xmlns="http://www.w3.org/2000/svg" xmlns:xlink="http://www.w3.org/1999/xlink" xml:space="preserve" xmlns:serif="http://www.serif.com/" style="fill-rule:evenodd;clip-rule:evenodd;stroke-linejoin:round;stroke-miterlimit:16;">
    <g transform="matrix(1,0,0,1,-1831,-14040)">
        <g id="Rebar_Shape_32" transform="matrix(0.785937,0,0,1.15149,-2125.91,13648.1)">
            <rect x="5035.21" y="341.093" width="1809.59" height="1235.12" style="fill:none;"/>
            <clipPath id="_clip1">
                <rect x="5035.21" y="341.093" width="1809.59" height="1235.12"/>
            </clipPath>
            <g clip-path="url(#_clip1)">
                <g id="Rebar_Shape_321" serif:id="Rebar_Shape_32" transform="matrix(1.27237,0,0,0.86844,2974.01,-8284.58)">
                    <g transform="matrix(5.55237,0,0,-5.55393,1124.76,11911.5)">
                        <rect x="89.126" y="100.499" width="256" height="256" style="fill:none;"/>
                    </g>
                    <g transform="matrix(5.55237,0,0,-5.55393,524.364,19139.2)">
                        <path d="M313.769,1550.89C313.769,1544.26 312.5,1537.89 309.963,1531.76C307.426,1525.63 303.813,1520.23 299.124,1515.54C294.436,1510.85 289.029,1507.24 282.903,1504.7C276.777,1502.16 270.399,1500.89 263.769,1500.89C257.139,1500.89 250.76,1502.16 244.635,1504.7C238.509,1507.24 233.102,1510.85 228.414,1515.54C223.725,1520.23 220.112,1525.63 217.575,1531.76C215.038,1537.89 213.769,1544.26 213.769,1550.89C213.769,1557.53 215.038,1563.9 217.575,1570.03C220.112,1576.15 223.725,1581.56 228.414,1586.25C233.102,1590.94 238.509,1594.55 244.635,1597.09C250.76,1599.63 257.139,1600.89 263.769,1600.89C270.399,1600.89 276.777,1599.63 282.903,1597.09C289.029,1594.55 294.436,1590.94 299.124,1586.25C303.813,1581.56 307.426,1576.15 309.963,1570.03C312.5,1563.9 313.769,1557.53 313.769,1550.89Z" style="fill:none;fill-rule:nonzero;stroke:rgb(255,0,0);stroke-width:7.12px;"/>
                    </g>
                    <g transform="matrix(0.219677,-5.54958,-5.54802,-0.219739,9032.53,19070.9)">
                        <path d="M1475.51,1288.75C1475.51,1286.09 1476.56,1283.55 1478.43,1281.67C1480.31,1279.8 1482.85,1278.75 1485.51,1278.75" style="fill:none;fill-rule:nonzero;stroke:rgb(255,0,0);stroke-width:7.12px;"/>
                    </g>
                    <g transform="matrix(-5.55235,0.0152199,-0.0152156,-5.55391,3695.29,19170.2)">
                        <path d="M262.67,1543.96L273.715,1543.96" style="fill:none;fill-rule:nonzero;stroke:rgb(255,0,0);stroke-width:7.12px;"/>
                    </g>
                    <g transform="matrix(-2.1661,-5.11386,5.11242,-2.16671,-4213.47,15654.4)">
                        <path d="M367.64,1477.2C367.64,1475.18 366.422,1473.35 364.554,1472.58C362.685,1471.81 360.535,1472.23 359.105,1473.66" style="fill:none;fill-rule:nonzero;stroke:rgb(255,0,0);stroke-width:7.12px;"/>
                    </g>
                    <g transform="matrix(-5.14573,-2.08631,-2.08573,5.14718,7695.54,3651.3)">
                        <path d="M335.73,1512.39L388.375,1512.39" style="fill:none;fill-rule:nonzero;stroke:rgb(255,0,0);stroke-width:7.12px;"/>
                    </g>
                    <g transform="matrix(-5.15465,2.06418,-2.0636,-5.1561,7657.67,17584.2)">
                        <path d="M336.267,1514.26L386.175,1514.26" style="fill:none;fill-rule:nonzero;stroke:rgb(255,0,0);stroke-width:7.12px;"/>
                    </g>
                    <g transform="matrix(2.1661,-5.11386,-5.11242,-2.16671,9555.06,15500.6)">
                        <path d="M367.64,1477.2C367.64,1475.18 366.422,1473.35 364.554,1472.58C362.685,1471.81 360.535,1472.23 359.105,1473.66" style="fill:none;fill-rule:nonzero;stroke:rgb(255,0,0);stroke-width:7.12px;"/>
                    </g>
                    <g transform="matrix(2.1661,-5.11386,-5.11242,-2.16671,9569.25,15816.1)">
                        <path d="M367.64,1477.2C367.64,1475.18 366.422,1473.35 364.554,1472.58C362.685,1471.81 360.535,1472.23 359.105,1473.66" style="fill:none;fill-rule:nonzero;stroke:rgb(255,0,0);stroke-width:7.12px;"/>
                    </g>
                    <g transform="matrix(5.55399,0,0,5.55556,0.603083,1.26319e-12)">
                        <text x="385.984px" y="2022.45px" style="font-family:'SegoeUI', 'Segoe UI', sans-serif;font-size:60.982px;fill:rgb(255,0,0);">3<tspan x="421.048px " y="2022.45px ">2</tspan></text>
                    </g>
                    <g transform="matrix(-5.15465,2.06418,-2.0636,-5.1561,7671.28,17900.3)">
                        <path d="M336.267,1514.26L386.175,1514.26" style="fill:none;fill-rule:nonzero;stroke:rgb(255,0,0);stroke-width:7.12px;"/>
                    </g>
                    <g transform="matrix(-2.1661,-5.11386,5.11242,-2.16671,-4227.66,15338.9)">
                        <path d="M367.64,1477.2C367.64,1475.18 366.422,1473.35 364.554,1472.58C362.685,1471.81 360.535,1472.23 359.105,1473.66" style="fill:none;fill-rule:nonzero;stroke:rgb(255,0,0);stroke-width:7.12px;"/>
                    </g>
                    <g transform="matrix(-5.14573,-2.08631,-2.08573,5.14718,7681.35,3335.79)">
                        <path d="M335.73,1512.39L388.375,1512.39" style="fill:none;fill-rule:nonzero;stroke:rgb(255,0,0);stroke-width:7.12px;"/>
                    </g>
                    <g transform="matrix(-5.15465,2.06418,-2.0636,-5.1561,7643.48,17268.7)">
                        <path d="M336.267,1514.26L386.175,1514.26" style="fill:none;fill-rule:nonzero;stroke:rgb(255,0,0);stroke-width:7.12px;"/>
                    </g>
                    <g transform="matrix(2.1661,-5.11386,-5.11242,-2.16671,9541.44,15184.5)">
                        <path d="M367.64,1477.2C367.64,1475.18 366.422,1473.35 364.554,1472.58C362.685,1471.81 360.535,1472.23 359.105,1473.66" style="fill:none;fill-rule:nonzero;stroke:rgb(255,0,0);stroke-width:7.12px;"/>
                    </g>
                    <g transform="matrix(-5.14592,-2.08586,-2.08527,5.14736,7666.1,3023.99)">
                        <path d="M335.728,1511.95L388.369,1511.95" style="fill:none;fill-rule:nonzero;stroke:rgb(255,0,0);stroke-width:7.12px;"/>
                    </g>
                </g>
            </g>
        </g>
    </g>
</svg>
