<?xml version="1.0" encoding="UTF-8" standalone="no"?>
<!DOCTYPE svg PUBLIC "-//W3C//DTD SVG 1.1//EN" "http://www.w3.org/Graphics/SVG/1.1/DTD/svg11.dtd">
<svg width="100%" height="100%" viewBox="0 0 1423 1424" version="1.1" xmlns="http://www.w3.org/2000/svg" xmlns:xlink="http://www.w3.org/1999/xlink" xml:space="preserve" xmlns:serif="http://www.serif.com/" style="fill-rule:evenodd;clip-rule:evenodd;stroke-linejoin:round;stroke-miterlimit:16;">
    <g transform="matrix(1,0,0,1,-7123,-9753)">
        <g id="Rebar_Shape_23" transform="matrix(0.785937,0,0,1.15149,3165.66,9361.22)">
            <rect x="5035.21" y="341.093" width="1809.59" height="1235.12" style="fill:none;"/>
            <g id="Rebar_Shape_231" serif:id="Rebar_Shape_23" transform="matrix(1.27237,0,0,0.86844,-3328.49,-5463.25)">
                <g transform="matrix(5.55237,0,0,-5.55393,6078.49,8663.61)">
                    <rect x="89.126" y="100.499" width="256" height="256" style="fill:none;"/>
                </g>
                <g transform="matrix(5.55399,0,0,5.55556,1.99379,-3.78956e-12)">
                    <text x="1276.06px" y="1437.84px" style="font-family:'SegoeUI', 'Segoe UI', sans-serif;font-size:60.982px;fill:rgb(255,0,0);">2<tspan x="1311.13px " y="1437.84px ">3</tspan></text>
                </g>
                <g transform="matrix(5.55237,0,0,-5.55393,508.133,11148.5)">
                    <path d="M1175.3,632.984L1265.43,632.984" style="fill:none;fill-rule:nonzero;stroke:rgb(255,0,0);stroke-width:7.12px;"/>
                </g>
                <g transform="matrix(0,-5.55393,5.55237,0,4427.43,14194)">
                    <path d="M1193.33,571.549L1316.2,571.549" style="fill:none;fill-rule:nonzero;stroke:rgb(255,0,0);stroke-width:7.12px;"/>
                </g>
                <g transform="matrix(-3.92612,3.92722,-3.92612,-3.92722,15028.3,5219.95)">
                    <path d="M1244.63,647.171C1249.32,642.485 1256.92,642.485 1261.6,647.171" style="fill:none;fill-rule:nonzero;stroke:rgb(255,0,0);stroke-width:7.12px;"/>
                </g>
                <g transform="matrix(5.55237,0,0,-5.55393,216.744,10485.6)">
                    <path d="M1215.78,648.492C1215.78,651.675 1217.05,654.727 1219.3,656.978C1221.55,659.228 1224.6,660.492 1227.78,660.492" style="fill:none;fill-rule:nonzero;stroke:rgb(255,0,0);stroke-width:7.12px;"/>
                </g>
                <g transform="matrix(-3.9261,-3.92724,3.92614,-3.9272,10121.6,14099.1)">
                    <path d="M1239.63,597.578C1244.32,602.265 1251.92,602.265 1256.6,597.578" style="fill:none;fill-rule:nonzero;stroke:rgb(255,0,0);stroke-width:7.12px;"/>
                </g>
                <g transform="matrix(5.55237,0,0,-5.55393,508.133,10332.8)">
                    <path d="M1175.3,632.984L1265.43,632.984" style="fill:none;fill-rule:nonzero;stroke:rgb(255,0,0);stroke-width:7.12px;"/>
                </g>
                <g transform="matrix(0,-5.55393,5.55237,0,3793.78,14194)">
                    <path d="M1193.33,571.549L1316.2,571.549" style="fill:none;fill-rule:nonzero;stroke:rgb(255,0,0);stroke-width:7.12px;"/>
                </g>
                <g transform="matrix(3.92612,3.92722,3.92612,-3.92722,-460.216,5219.95)">
                    <path d="M1244.63,647.171C1249.32,642.485 1256.92,642.485 1261.6,647.171" style="fill:none;fill-rule:nonzero;stroke:rgb(255,0,0);stroke-width:7.12px;"/>
                </g>
                <g transform="matrix(-3.35625,4.42441,-4.42316,-3.3572,15435.7,4326.2)">
                    <path d="M1217.52,862.544L1237.33,862.544" style="fill:none;fill-rule:nonzero;stroke:rgb(255,0,0);stroke-width:7.12px;"/>
                </g>
                <g transform="matrix(-3.35735,4.42358,-4.42233,-3.35829,15581.6,4352.65)">
                    <path d="M1229.48,871.241L1249.33,871.241" style="fill:none;fill-rule:nonzero;stroke:rgb(255,0,0);stroke-width:7.12px;"/>
                </g>
            </g>
        </g>
    </g>
</svg>
