<?xml version="1.0" encoding="UTF-8" standalone="no"?>
<!DOCTYPE svg PUBLIC "-//W3C//DTD SVG 1.1//EN" "http://www.w3.org/Graphics/SVG/1.1/DTD/svg11.dtd">
<svg width="100%" height="100%" viewBox="0 0 1423 1423" version="1.1" xmlns="http://www.w3.org/2000/svg" xmlns:xlink="http://www.w3.org/1999/xlink" xml:space="preserve" xmlns:serif="http://www.serif.com/" style="fill-rule:evenodd;clip-rule:evenodd;stroke-linejoin:round;stroke-miterlimit:16;">
    <g transform="matrix(1,0,0,1,-8875,-16264)">
        <g id="Rebar_Shape_42" transform="matrix(0.785937,0,0,1.15149,4917.89,15871.6)">
            <rect x="5035.21" y="341.093" width="1809.59" height="1235.12" style="fill:none;"/>
            <clipPath id="_clip1">
                <rect x="5035.21" y="341.093" width="1809.59" height="1235.12"/>
            </clipPath>
            <g clip-path="url(#_clip1)">
                <g id="Rebar_Shape_421" serif:id="Rebar_Shape_42" transform="matrix(1.27237,0,0,0.86844,-3860.46,-10693.2)">
                    <g transform="matrix(5.55237,0,0,-5.55393,6497.85,14680.7)">
                        <rect x="89.126" y="100.499" width="256" height="256" style="fill:none;"/>
                    </g>
                    <g transform="matrix(5.55237,0,0,-5.55393,5624.74,25383.9)">
                        <path d="M284.827,2185.55L342.256,2185.55" style="fill:none;fill-rule:nonzero;stroke:rgb(255,0,0);stroke-width:7.12px;"/>
                    </g>
                    <g transform="matrix(5.55399,0,0,5.55556,-23.372,-1134)">
                        <text x="1356.14px" y="2725.02px" style="font-family:'SegoeUI', 'Segoe UI', sans-serif;font-size:60.982px;fill:rgb(255,0,0);">4<tspan x="1391.2px " y="2725.02px ">2</tspan></text>
                    </g>
                    <g transform="matrix(5.55237,0,0,-5.55393,5827.01,26334)">
                        <path d="M248.399,2282.99L418.945,2282.99" style="fill:none;fill-rule:nonzero;stroke:rgb(255,0,0);stroke-width:7.12px;"/>
                    </g>
                    <g transform="matrix(0,5.55393,-5.55237,0,20472.9,10876.2)">
                        <path d="M366.289,2203.82L485.223,2203.82" style="fill:none;fill-rule:nonzero;stroke:rgb(255,0,0);stroke-width:7.12px;"/>
                    </g>
                    <g transform="matrix(0,5.55393,-5.55237,0,19568.4,12153.7)">
                        <path d="M211.59,2241.48L255.207,2241.48" style="fill:none;fill-rule:nonzero;stroke:rgb(255,0,0);stroke-width:7.12px;"/>
                    </g>
                    <g transform="matrix(3.92613,3.92722,-3.92611,3.92723,13910.4,2524.74)">
                        <path d="M541.969,2270.78C547.82,2276.64 557.328,2276.64 563.182,2270.78" style="fill:none;fill-rule:nonzero;stroke:rgb(255,0,0);stroke-width:7.12px;"/>
                    </g>
                    <g transform="matrix(3.92613,-3.92722,-3.92611,-3.92723,13910.4,24375.1)">
                        <path d="M541.969,2270.78C547.82,2276.64 557.328,2276.64 563.182,2270.78" style="fill:none;fill-rule:nonzero;stroke:rgb(255,0,0);stroke-width:7.12px;"/>
                    </g>
                    <g transform="matrix(-3.92612,3.92722,3.92612,3.92722,1448.89,2524.76)">
                        <path d="M541.968,2270.79C547.828,2276.64 557.326,2276.65 563.181,2270.79" style="fill:none;fill-rule:nonzero;stroke:rgb(255,0,0);stroke-width:7.12px;"/>
                    </g>
                    <g transform="matrix(-5.55237,0,0,-5.55393,9734.61,24965.6)">
                        <path d="M284.827,2185.55L373.756,2185.55" style="fill:none;fill-rule:nonzero;stroke:rgb(255,0,0);stroke-width:7.12px;"/>
                    </g>
                    <g transform="matrix(-3.92613,-3.92722,3.92611,-3.92723,1448.91,23956.8)">
                        <path d="M541.969,2270.78C547.82,2276.64 557.328,2276.64 563.182,2270.78" style="fill:none;fill-rule:nonzero;stroke:rgb(255,0,0);stroke-width:7.12px;"/>
                    </g>
                </g>
            </g>
        </g>
    </g>
</svg>
