<?xml version="1.0" encoding="UTF-8" standalone="no"?>
<!DOCTYPE svg PUBLIC "-//W3C//DTD SVG 1.1//EN" "http://www.w3.org/Graphics/SVG/1.1/DTD/svg11.dtd">
<svg width="100%" height="100%" viewBox="0 0 1423 1424" version="1.1" xmlns="http://www.w3.org/2000/svg" xmlns:xlink="http://www.w3.org/1999/xlink" xml:space="preserve" xmlns:serif="http://www.serif.com/" style="fill-rule:evenodd;clip-rule:evenodd;stroke-linejoin:round;stroke-miterlimit:16;">
    <g transform="matrix(1,0,0,1,-7123,-7666)">
        <g id="Rebar_Shape_17" transform="matrix(0.785937,0,0,1.15149,3165.66,7274.1)">
            <rect x="5035.21" y="341.093" width="1809.59" height="1235.12" style="fill:none;"/>
            <clipPath id="_clip1">
                <rect x="5035.21" y="341.093" width="1809.59" height="1235.12"/>
            </clipPath>
            <g clip-path="url(#_clip1)">
                <g id="Rebar_Shape_171" serif:id="Rebar_Shape_17" transform="matrix(1.27237,0,0,0.86844,-3328.74,-3984.27)">
                    <g transform="matrix(5.55237,0,0,-5.55393,6078.49,6960.58)">
                        <rect x="89.126" y="100.499" width="256" height="256" style="fill:none;"/>
                    </g>
                    <g transform="matrix(0,5.55393,-5.55237,0,10989.7,-1491.8)">
                        <path d="M1205.14,616.687L1237.73,616.687" style="fill:none;fill-rule:nonzero;stroke:rgb(255,0,0);stroke-width:7.12px;"/>
                    </g>
                    <g transform="matrix(5.55237,0,0,-5.55393,811.529,8925.78)">
                        <path d="M1221.43,632.984L1254.77,632.984" style="fill:none;fill-rule:nonzero;stroke:rgb(255,0,0);stroke-width:7.12px;"/>
                    </g>
                    <g transform="matrix(0,-5.55393,5.55237,0,4382.14,12260.8)">
                        <path d="M1238.47,616.687L1271.06,616.687" style="fill:none;fill-rule:nonzero;stroke:rgb(255,0,0);stroke-width:7.12px;"/>
                    </g>
                    <g transform="matrix(-5.55237,0,0,-5.55393,14560.3,8508.21)">
                        <path d="M1221.43,600.391L1254.77,600.391" style="fill:none;fill-rule:nonzero;stroke:rgb(255,0,0);stroke-width:7.12px;"/>
                    </g>
                    <g transform="matrix(-3.9261,3.92725,-3.92614,-3.9272,15253.1,2989.12)">
                        <path d="M1253.08,643.671C1255.03,641.718 1258.2,641.718 1260.15,643.671" style="fill:none;fill-rule:nonzero;stroke:rgb(255,0,0);stroke-width:7.12px;"/>
                    </g>
                    <g transform="matrix(3.9261,3.92725,-3.92614,3.9272,5323.54,-1955.25)">
                        <path d="M1219.75,648.671C1221.7,650.623 1224.87,650.623 1226.82,648.671" style="fill:none;fill-rule:nonzero;stroke:rgb(255,0,0);stroke-width:7.12px;"/>
                    </g>
                    <g transform="matrix(5.55237,0,0,-5.55393,815.132,8842)">
                        <path d="M1215.78,655.492C1215.78,656.818 1216.31,658.091 1217.25,659.028C1218.19,659.966 1219.46,660.492 1220.78,660.492" style="fill:none;fill-rule:nonzero;stroke:rgb(255,0,0);stroke-width:7.12px;"/>
                    </g>
                    <g transform="matrix(-3.92612,-3.92722,3.92612,-3.92722,10346.4,12463.5)">
                        <path d="M1248.08,601.078C1250.03,603.031 1253.2,603.031 1255.15,601.078" style="fill:none;fill-rule:nonzero;stroke:rgb(255,0,0);stroke-width:7.12px;"/>
                    </g>
                    <g transform="matrix(0,5.55393,-5.55237,0,11374,-1121.53)">
                        <path d="M1171.06,685.895L1260.51,685.895" style="fill:none;fill-rule:nonzero;stroke:rgb(255,0,0);stroke-width:7.12px;"/>
                    </g>
                    <g transform="matrix(-5.55237,0,0,-5.55393,13635.2,8525.91)">
                        <path d="M1088.16,603.578L1220.78,603.578" style="fill:none;fill-rule:nonzero;stroke:rgb(255,0,0);stroke-width:7.12px;"/>
                    </g>
                    <g transform="matrix(-0.412701,5.53857,5.53701,0.412818,4273.98,-3152.4)">
                        <path d="M1460.41,575.35C1460.41,567.066 1467.12,560.35 1475.41,560.35C1483.69,560.35 1490.41,567.066 1490.41,575.35" style="fill:none;fill-rule:nonzero;stroke:rgb(255,0,0);stroke-width:7.12px;"/>
                    </g>
                    <g transform="matrix(5.53713,0.411235,0.411119,-5.53869,-757.379,8465.37)">
                        <path d="M1460.41,575.35C1460.41,567.066 1467.12,560.35 1475.41,560.35C1483.69,560.35 1490.41,567.066 1490.41,575.35" style="fill:none;fill-rule:nonzero;stroke:rgb(255,0,0);stroke-width:7.12px;"/>
                    </g>
                    <g transform="matrix(5.55399,0,0,5.55556,1.97456,1.26319e-12)">
                        <text x="1263.75px" y="1131.29px" style="font-family:'SegoeUI', 'Segoe UI', sans-serif;font-size:60.982px;fill:rgb(255,0,0);">1<tspan x="1298.82px " y="1131.29px ">7</tspan></text>
                    </g>
                </g>
            </g>
        </g>
    </g>
</svg>
