<?xml version="1.0" encoding="UTF-8" standalone="no"?>
<!DOCTYPE svg PUBLIC "-//W3C//DTD SVG 1.1//EN" "http://www.w3.org/Graphics/SVG/1.1/DTD/svg11.dtd">
<svg width="100%" height="100%" viewBox="0 0 1423 1423" version="1.1" xmlns="http://www.w3.org/2000/svg" xmlns:xlink="http://www.w3.org/1999/xlink" xml:space="preserve" xmlns:serif="http://www.serif.com/" style="fill-rule:evenodd;clip-rule:evenodd;stroke-linejoin:round;stroke-miterlimit:16;">
    <g transform="matrix(1,0,0,1,-3604,-3587)">
        <g id="Rebar_Shape_03" transform="matrix(0.785937,0,0,1.15149,-353.044,3194.72)">
            <rect x="5035.21" y="341.093" width="1809.59" height="1235.12" style="fill:none;"/>
            <clipPath id="_clip1">
                <rect x="5035.21" y="341.093" width="1809.59" height="1235.12"/>
            </clipPath>
            <g clip-path="url(#_clip1)">
                <g id="Rebar_Shape_031" serif:id="Rebar_Shape_03" transform="matrix(1.27237,0,0,0.86844,979.356,-1230.75)">
                    <g transform="matrix(5.55237,0,0,-5.55393,2692.79,3789.93)">
                        <rect x="89.126" y="100.499" width="256" height="256" style="fill:white;fill-opacity:0;"/>
                    </g>
                    <g transform="matrix(5.55237,0,0,-5.55393,2938.79,3539.65)">
                        <path d="M96,171.213L247.016,171.213" style="fill:none;fill-rule:nonzero;stroke:rgb(255,0,0);stroke-width:7.12px;"/>
                    </g>
                    <g transform="matrix(0.444402,-5.53612,-5.53456,-0.444527,3719.02,3769.86)">
                        <path d="M208.416,61.401C208.416,76.98 219.927,89.61 234.126,89.61C248.325,89.61 259.836,76.98 259.836,61.401" style="fill:none;fill-rule:nonzero;stroke:rgb(255,0,0);stroke-width:7.12px;"/>
                    </g>
                    <g transform="matrix(-0.139129,5.55219,5.55063,0.139168,4005.64,1137.55)">
                        <path d="M208.416,61.401C208.416,76.98 219.927,89.61 234.126,89.61C248.325,89.61 259.836,76.98 259.836,61.401" style="fill:none;fill-rule:nonzero;stroke:rgb(255,0,0);stroke-width:7.12px;"/>
                    </g>
                    <g transform="matrix(5.55399,0,0,5.55556,1.04159,-1.26319e-12)">
                        <text x="666.637px" y="560.572px" style="font-family:'SegoeUI', 'Segoe UI', sans-serif;font-size:60.982px;fill:rgb(255,0,0);">0<tspan x="701.701px " y="560.572px ">3</tspan></text>
                    </g>
                </g>
            </g>
        </g>
    </g>
</svg>
