<?xml version="1.0" encoding="UTF-8" standalone="no"?>
<!DOCTYPE svg PUBLIC "-//W3C//DTD SVG 1.1//EN" "http://www.w3.org/Graphics/SVG/1.1/DTD/svg11.dtd">
<svg width="100%" height="100%" viewBox="0 0 1423 1423" version="1.1" xmlns="http://www.w3.org/2000/svg" xmlns:xlink="http://www.w3.org/1999/xlink" xml:space="preserve" xmlns:serif="http://www.serif.com/" style="fill-rule:evenodd;clip-rule:evenodd;stroke-linejoin:round;stroke-miterlimit:16;">
    <g transform="matrix(1,0,0,1,-5353,-16264)">
        <g id="Rebar_Shape_40" transform="matrix(0.785937,0,0,1.15149,1396.35,15871.6)">
            <rect x="5035.21" y="341.093" width="1809.59" height="1235.12" style="fill:none;"/>
            <clipPath id="_clip1">
                <rect x="5035.21" y="341.093" width="1809.59" height="1235.12"/>
            </clipPath>
            <g clip-path="url(#_clip1)">
                <g id="Rebar_Shape_401" serif:id="Rebar_Shape_40" transform="matrix(1.27237,0,0,0.86844,419.519,-10634.6)">
                    <g transform="matrix(5.55237,0,0,-5.55393,3156.5,14642.3)">
                        <rect x="89.126" y="100.499" width="256" height="256" style="fill:none;"/>
                    </g>
                    <g transform="matrix(-5.55237,0,0,-5.55393,4248.11,17330.3)">
                        <path d="M-104.644,679.962L84.085,679.962" style="fill:none;fill-rule:nonzero;stroke:rgb(255,0,0);stroke-width:7.12px;"/>
                    </g>
                    <g transform="matrix(5.55237,0,0,-5.55393,4209.24,25079.9)">
                        <path d="M-42.65,2185.55L62.314,2185.55" style="fill:none;fill-rule:nonzero;stroke:rgb(255,0,0);stroke-width:7.12px;"/>
                    </g>
                    <g transform="matrix(2.42702e-07,-5.55393,5.55237,2.4277e-07,-7823.06,14162.7)">
                        <path d="M109.642,2278.7C109.641,2284.76 113.298,2290.24 118.901,2292.56C124.504,2294.88 130.962,2293.6 135.248,2289.31" style="fill:none;fill-rule:nonzero;stroke:rgb(255,0,0);stroke-width:7.12px;"/>
                    </g>
                    <g transform="matrix(-5.1344,-2.11408,-2.11348,5.13584,9997.91,1431.14)">
                        <path d="M106.098,2289.58C109.776,2288.05 113.904,2288.05 117.579,2289.58" style="fill:none;fill-rule:nonzero;stroke:rgb(255,0,0);stroke-width:7.12px;"/>
                    </g>
                    <g transform="matrix(2.93052,4.71735,-4.71602,2.93135,14983.7,6191.91)">
                        <path d="M49.256,2230.38L146.001,2230.38" style="fill:none;fill-rule:nonzero;stroke:rgb(255,0,0);stroke-width:7.12px;"/>
                    </g>
                    <g transform="matrix(5.55399,0,0,5.55556,-24.3117,-1134)">
                        <text x="754.694px" y="2718.12px" style="font-family:'SegoeUI', 'Segoe UI', sans-serif;font-size:60.982px;fill:rgb(255,0,0);">4<tspan x="789.758px " y="2718.12px ">0</tspan></text>
                    </g>
                </g>
            </g>
        </g>
    </g>
</svg>
