<?xml version="1.0" encoding="UTF-8" standalone="no"?>
<!DOCTYPE svg PUBLIC "-//W3C//DTD SVG 1.1//EN" "http://www.w3.org/Graphics/SVG/1.1/DTD/svg11.dtd">
<svg width="100%" height="100%" viewBox="0 0 1423 1424" version="1.1" xmlns="http://www.w3.org/2000/svg" xmlns:xlink="http://www.w3.org/1999/xlink" xml:space="preserve" xmlns:serif="http://www.serif.com/" style="fill-rule:evenodd;clip-rule:evenodd;stroke-linejoin:round;stroke-miterlimit:16;">
    <g transform="matrix(1,0,0,1,-1825,-9753)">
        <g id="Rebar_Shape_20" transform="matrix(0.785937,0,0,1.15149,-2131.84,9361.22)">
            <rect x="5035.21" y="341.093" width="1809.59" height="1235.12" style="fill:none;"/>
            <clipPath id="_clip1">
                <rect x="5035.21" y="341.093" width="1809.59" height="1235.12"/>
            </clipPath>
            <g clip-path="url(#_clip1)">
                <g id="Rebar_Shape_201" serif:id="Rebar_Shape_20" transform="matrix(1.27237,0,0,0.86844,2971.74,-5450.82)">
                    <g transform="matrix(5.55237,0,0,-5.55393,1125.79,8663.61)">
                        <rect x="89.126" y="100.499" width="256" height="256" style="fill:none;"/>
                    </g>
                    <g transform="matrix(0,5.55393,-5.55237,0,7970.99,4149.54)">
                        <path d="M574.485,984.71L609.291,984.71" style="fill:none;fill-rule:nonzero;stroke:rgb(255,0,0);stroke-width:7.12px;"/>
                    </g>
                    <g transform="matrix(5.55399,0,0,5.55556,0.600884,-1.26319e-12)">
                        <text x="384.576px" y="1434.28px" style="font-family:'SegoeUI', 'Segoe UI', sans-serif;font-size:60.982px;fill:rgb(255,0,0);">2<tspan x="419.641px " y="1434.28px ">0</tspan></text>
                    </g>
                    <g transform="matrix(5.55237,0,0,-5.55393,-1171.73,13144.8)">
                        <path d="M613.657,1002.11L653.148,1002.11" style="fill:none;fill-rule:nonzero;stroke:rgb(255,0,0);stroke-width:7.12px;"/>
                    </g>
                    <g transform="matrix(3.92612,3.92722,-3.92612,3.92722,3822.52,1262.15)">
                        <path d="M590.127,1006.36C593.447,1009.68 598.829,1009.68 602.148,1006.36" style="fill:none;fill-rule:nonzero;stroke:rgb(255,0,0);stroke-width:7.12px;"/>
                    </g>
                    <g transform="matrix(4.05345,-3.79559,3.79452,4.05459,-3755.92,5738.62)">
                        <path d="M590.127,1006.36C593.447,1009.68 598.829,1009.68 602.148,1006.36" style="fill:none;fill-rule:nonzero;stroke:rgb(255,0,0);stroke-width:7.12px;"/>
                    </g>
                    <g transform="matrix(0,5.55393,-5.55237,0,7655.8,4147.96)">
                        <path d="M574.485,984.71L609.291,984.71" style="fill:none;fill-rule:nonzero;stroke:rgb(255,0,0);stroke-width:7.12px;"/>
                    </g>
                    <g transform="matrix(-2.11329,5.13592,-5.13447,-2.11388,8609.41,6400.33)">
                        <path d="M589.88,1005.12C591.963,1005.98 594.303,1005.98 596.385,1005.12" style="fill:none;fill-rule:nonzero;stroke:rgb(255,0,0);stroke-width:7.12px;"/>
                    </g>
                    <g transform="matrix(3.85228,-3.99972,3.9986,3.85336,-2368.53,4740.55)">
                        <path d="M238.581,913.203L338.263,913.203" style="fill:none;fill-rule:nonzero;stroke:rgb(255,0,0);stroke-width:7.12px;"/>
                    </g>
                    <g transform="matrix(-2.19732,-5.10051,5.09908,-2.19793,-1325.51,12558.1)">
                        <path d="M589.88,1005.12C591.963,1005.98 594.303,1005.98 596.385,1005.12" style="fill:none;fill-rule:nonzero;stroke:rgb(255,0,0);stroke-width:7.12px;"/>
                    </g>
                    <g transform="matrix(-3.85228,-3.99972,-3.9986,3.85336,7059.83,4742.36)">
                        <path d="M238.581,913.203L338.263,913.203" style="fill:none;fill-rule:nonzero;stroke:rgb(255,0,0);stroke-width:7.12px;"/>
                    </g>
                    <g transform="matrix(-4.18103,3.65449,3.65346,4.18221,-1438.38,2430.55)">
                        <path d="M73.915,1027.05C73.915,1020.42 68.543,1015.05 61.915,1015.05C55.288,1015.05 49.915,1020.42 49.915,1027.05" style="fill:none;fill-rule:nonzero;stroke:rgb(255,0,0);stroke-width:7.12px;"/>
                    </g>
                    <g transform="matrix(-4.16632,-3.67126,-3.67023,4.1675,6663.54,2897.63)">
                        <path d="M73.915,1027.05C73.915,1020.42 68.543,1015.05 61.915,1015.05C55.288,1015.05 49.915,1020.42 49.915,1027.05" style="fill:none;fill-rule:nonzero;stroke:rgb(255,0,0);stroke-width:7.12px;"/>
                    </g>
                </g>
            </g>
        </g>
    </g>
</svg>
