<?xml version="1.0" encoding="UTF-8" standalone="no"?>
<!DOCTYPE svg PUBLIC "-//W3C//DTD SVG 1.1//EN" "http://www.w3.org/Graphics/SVG/1.1/DTD/svg11.dtd">
<svg width="100%" height="100%" viewBox="0 0 1424 1423" version="1.1" xmlns="http://www.w3.org/2000/svg" xmlns:xlink="http://www.w3.org/1999/xlink" xml:space="preserve" xmlns:serif="http://www.serif.com/" style="fill-rule:evenodd;clip-rule:evenodd;">
    <g transform="matrix(1,0,0,1,-1782,0)">
        <g id="Ribbon_Icon_Clear-Formaatting" serif:id="Ribbon_Icon_Clear Formaatting" transform="matrix(0.785937,0,0,1.15149,-2174.53,-392.765)">
            <rect x="5035.21" y="341.093" width="1809.59" height="1235.12" style="fill:none;"/>
            <clipPath id="_clip1">
                <rect x="5035.21" y="341.093" width="1809.59" height="1235.12"/>
            </clipPath>
            <g clip-path="url(#_clip1)">
                <g id="Ribbon_Icon_Clear-Formaatting1" serif:id="Ribbon_Icon_Clear Formaatting" transform="matrix(1.27237,0,0,0.86844,2373.61,333.617)">
                    <g transform="matrix(1,0,0,1,565.329,-5.11591e-13)">
                        <path d="M2947.93,1430.41L1526.53,1430.41L1526.53,8.609L2947.93,8.609L2947.93,1430.41ZM2620.97,1177.26L1702.76,1177.26L1702.76,1024.98L2620.97,1024.98L2620.97,1177.26ZM2620.97,908.817L1702.76,908.817L1702.76,756.538L2620.97,756.538L2620.97,908.817ZM2757,661.976L1702.76,661.976L1702.76,509.697L2757,509.697L2757,661.976ZM2757,428.475L1702.76,428.475L1702.76,276.197L2757,276.197L2757,428.475Z" style="fill:rgb(13,186,235);stroke:white;stroke-width:6.11px;"/>
                    </g>
                    <g transform="matrix(5.55237,0,0,-5.55393,1211.89,353.47)">
                        <path d="M382.233,-108.849C382.233,-114.544 381.143,-120.021 378.964,-125.282C376.785,-130.543 373.682,-135.187 369.655,-139.214C365.629,-143.241 360.985,-146.343 355.724,-148.523C350.463,-150.702 344.985,-151.791 339.29,-151.791C333.596,-151.791 328.118,-150.702 322.857,-148.523C317.596,-146.343 312.952,-143.241 308.926,-139.214C304.899,-135.187 301.796,-130.543 299.617,-125.282C297.438,-120.021 296.348,-114.544 296.348,-108.849C296.348,-103.155 297.438,-97.677 299.617,-92.416C301.796,-87.155 304.899,-82.511 308.926,-78.484C312.952,-74.458 317.596,-71.355 322.857,-69.176C328.118,-66.996 333.596,-65.907 339.29,-65.907C344.985,-65.907 350.463,-66.996 355.724,-69.176C360.985,-71.355 365.629,-74.458 369.655,-78.484C373.682,-82.511 376.785,-87.155 378.964,-92.416C381.143,-97.677 382.233,-103.155 382.233,-108.849Z" style="fill:rgb(13,186,235);fill-rule:nonzero;stroke:rgb(255,0,0);stroke-width:10px;"/>
                    </g>
                    <g transform="matrix(4.02685,-3.82381,3.82274,4.02798,2092.95,3477.44)">
                        <path d="M400.376,-203.531L489.392,-203.531" style="fill:none;fill-rule:nonzero;stroke:rgb(255,0,0);stroke-width:10px;stroke-linejoin:round;stroke-miterlimit:16;"/>
                    </g>
                </g>
            </g>
        </g>
    </g>
</svg>
